# xmcd
#
# Track frame offsets:
# 150
# 18729
# 32654
# 50564
# 72347
# 110235
# 125581
# 146166
# 166249
# 192295
# 221406
# 244638
# 263117
# 283730
# 303089
# 319244
#
# Disc length: 4531 seconds
#
#
# Revision: 1
# Processed by: cddbd v1.5PL3 Copyright (c) Steve Scherf et al.
# Submitted via: FreeRIP 2.70 
#
DISCID=f511b110
DTITLE=Love's Collection Especial - Volume 3
DYEAR=2003
DGENRE=Rhythmic Soul
TTITLE0=Sexual Healing - Marvin Gaye
TTITLE1=You are Evergthing - Marvin Gaye
TTITLE2=Let's Get It On - Marvin Gaye
TTITLE3=Thank You Four The Many
TTITLE4=Tonight Is The Night - Betty Wright
TTITLE5=Do You Hnow Were You're Going To
TTITLE6=Swining Star - Manhattans
TTITLE7=Lay Your Love on me - Freddie Jackson
TTITLE8=Antecipation - B Hays
TTITLE9=For The Good Times - All Greem
TTITLE10=Eazy - Zapp
TTITLE11=I Want To Be Your Man
TTITLE12=I Will Always Loves You - Whiyney Houston
TTITLE13=I Dont Want To - Toni Braxton
TTITLE14=Without You - Mariah Carey
TTITLE15=Because You Love - Celine Dion
EXTD=YEAR: 2003
EXTT0=
EXTT1=
EXTT2=
EXTT3=
EXTT4=
EXTT5=
EXTT6=
EXTT7=
EXTT8=
EXTT9=
EXTT10=
EXTT11=
EXTT12=
EXTT13=
EXTT14=
EXTT15=
PLAYORDER=
